# xmcd
#
# Track frame offsets:
#	150
#	16710
#	37731
#
# Disc length: 883 seconds
#
# Revision: 0
# Processed by: cddbd v1.5.2PL0 Copyright (c) Steve Scherf et al.
# Submitted via: audiograbber 1.83.01
#
DISCID=10037103
DTITLE=B.J. Hegenbluesband - Blues originals and classics
DYEAR=2007
DGENRE=Blues
TTITLE0=Cold Rainy Day
TTITLE1=44 Blues
TTITLE2=Banty Rooster Blues
EXTD=
EXTT0=
EXTT1=
EXTT2=
PLAYORDER=
